<?xml version="1.0" encoding="UTF-8"?>
<svg version="1.1" xmlns="http://www.w3.org/2000/svg" width="500" height="500">
<path d="M0 0 C1.10730469 -0.020625 2.21460938 -0.04125 3.35546875 -0.0625 C9.87614667 -0.09351393 14.87497556 0.32958622 20.75 3.25 C26.58687053 10.2841773 25.96509101 17.08400581 25.99023438 25.87475586 C25.99988719 27.91367223 26.03091172 29.95155648 26.0625 31.99023438 C26.09772368 40.91503421 25.8902248 47.9522673 20.53515625 55.28125 C15.68464932 58.76750506 9.04411508 57.91050077 3.32739258 57.79199219 C1.1893325 57.75003596 -0.9455807 57.75093739 -3.08398438 57.7578125 C-10.32280312 57.70234384 -15.06982149 57.50124995 -20.9375 52.9375 C-25.6989078 46.81568997 -24.58711203 38.40430626 -24.56567383 31.08276367 C-24.56251365 28.82226326 -24.58600839 26.56307344 -24.61132812 24.30273438 C-24.61360163 22.84895997 -24.61430437 21.39518208 -24.61328125 19.94140625 C-24.61626221 18.63373291 -24.61924316 17.32605957 -24.62231445 15.97875977 C-24.08890242 10.63659453 -22.74554005 6.70719286 -18.8125 2.875 C-13.07158927 -0.76557754 -6.58877834 0.03025845 0 0 Z M-12.38671875 14.05859375 C-13.71784597 18.97954822 -13.64132718 23.73918296 -13.5625 28.8125 C-13.56572266 29.85341797 -13.56894531 30.89433594 -13.57226562 31.96679688 C-13.66309734 38.41337968 -13.66309734 38.41337968 -11.25 44.25 C-7.61102049 46.06948976 -3.31840712 45.43470453 0.6875 45.4375 C1.60724609 45.44974609 2.52699219 45.46199219 3.47460938 45.47460938 C4.35826172 45.47654297 5.24191406 45.47847656 6.15234375 45.48046875 C6.96179443 45.48457764 7.77124512 45.48868652 8.60522461 45.49291992 C11.04777907 45.38192317 11.04777907 45.38192317 13.75 43.25 C14.21754174 40.39123178 14.21754174 40.39123178 14.1484375 37.03515625 C14.15230469 35.79185547 14.15617187 34.54855469 14.16015625 33.26757812 C14.14855469 31.96240234 14.13695312 30.65722656 14.125 29.3125 C14.13660156 28.01119141 14.14820313 26.70988281 14.16015625 25.36914062 C14.15435547 23.50225586 14.15435547 23.50225586 14.1484375 21.59765625 C14.14505371 20.45304932 14.14166992 19.30844238 14.13818359 18.12915039 C13.96599724 15.28577029 13.96599724 15.28577029 12.52392578 13.38256836 C8.89093316 11.06307307 4.42770513 11.73881471 0.25 11.75 C-0.71292969 11.72164062 -1.67585938 11.69328125 -2.66796875 11.6640625 C-7.96375976 11.54897234 -7.96375976 11.54897234 -12.38671875 14.05859375 Z " fill="#FFFFFF" transform="translate(223.25,201.75)"/>
<path d="M0 0 C5.01705721 -0.07442006 10.03378972 -0.12872908 15.05126953 -0.16479492 C16.75640463 -0.17983738 18.46150132 -0.20027653 20.16650391 -0.22631836 C22.62412012 -0.26290284 25.08122269 -0.27977173 27.5390625 -0.29296875 C28.29555084 -0.30845261 29.05203918 -0.32393646 29.83145142 -0.33988953 C34.625681 -0.34139771 37.82182897 0.40255587 42 3 C45.8835289 7.28527327 46.17785716 11.16732284 46.25 16.8125 C46.27578125 18.01519531 46.3015625 19.21789062 46.328125 20.45703125 C45.90250555 25.05270793 44.36855989 28.28930013 41.5 31.875 C40 33 40 33 37 33 C37.33845947 33.58491211 37.67691895 34.16982422 38.02563477 34.77246094 C39.55074389 37.42450447 41.05672981 40.08693262 42.5625 42.75 C43.09552734 43.67039063 43.62855469 44.59078125 44.17773438 45.5390625 C44.67724609 46.42851562 45.17675781 47.31796875 45.69140625 48.234375 C46.15748291 49.05131836 46.62355957 49.86826172 47.10375977 50.70996094 C48 53 48 53 47 57 C43.04 57 39.08 57 35 57 C34.30132812 55.66324219 33.60265625 54.32648438 32.8828125 52.94921875 C31.96362907 51.19526669 31.04435343 49.44136295 30.125 47.6875 C29.66480469 46.80642578 29.20460937 45.92535156 28.73046875 45.01757812 C28.28574219 44.17001953 27.84101563 43.32246094 27.3828125 42.44921875 C26.97434082 41.66893311 26.56586914 40.88864746 26.14501953 40.0847168 C24.93059789 37.80312614 24.93059789 37.80312614 23 35 C20.11404054 34.41518879 20.11404054 34.41518879 16.875 34.3125 C15.77929688 34.24675781 14.68359375 34.18101562 13.5546875 34.11328125 C12.71164063 34.07589844 11.86859375 34.03851563 11 34 C11.00523682 34.6612085 11.01047363 35.32241699 11.01586914 36.00366211 C11.03657656 38.98159851 11.04964012 41.95951982 11.0625 44.9375 C11.07087891 45.97841797 11.07925781 47.01933594 11.08789062 48.09179688 C11.09111328 49.08115234 11.09433594 50.07050781 11.09765625 51.08984375 C11.10289307 52.00628662 11.10812988 52.92272949 11.11352539 53.86694336 C11 56 11 56 10 57 C8.31391034 57.07205511 6.62499341 57.08386068 4.9375 57.0625 C4.01839844 57.05347656 3.09929687 57.04445313 2.15234375 57.03515625 C1.44207031 57.02355469 0.73179687 57.01195312 0 57 C-1.47712785 54.0457443 -1.12989998 51.38739796 -1.1328125 48.09375 C-1.13376923 47.41324585 -1.13472595 46.7327417 -1.13571167 46.03161621 C-1.13639231 44.59252836 -1.13454607 43.15343743 -1.13037109 41.71435547 C-1.12502115 39.50871907 -1.13031991 37.3032863 -1.13671875 35.09765625 C-1.13605795 33.70052038 -1.13477674 32.30338464 -1.1328125 30.90625 C-1.13168457 29.63072266 -1.13055664 28.35519531 -1.12939453 27.04101562 C-1 24 -1 24 0 22 C10.89 21.67 21.78 21.34 33 21 C33 18.36 33 15.72 33 13 C22.11 12.67 11.22 12.34 0 12 C-1.12256131 9.75487738 -1.13413762 8.48543351 -1.125 6 C-1.12886719 4.948125 -1.12886719 4.948125 -1.1328125 3.875 C-1 2 -1 2 0 0 Z " fill="#FFFFFF" transform="translate(139,202)"/>
<path d="M0 0 C0.74121094 -0.02191406 1.48242188 -0.04382813 2.24609375 -0.06640625 C5.74463499 0.88345065 7.19434898 2.84828486 9.5625 5.5625 C10.84118151 8.13957838 11.92488627 10.57640393 12.9375 13.25 C13.22931152 13.98895508 13.52112305 14.72791016 13.82177734 15.48925781 C14.74767565 17.8423969 15.65528735 20.20210292 16.5625 22.5625 C17.17068412 24.11635206 17.78004968 25.66974224 18.390625 27.22265625 C19.57698983 30.24554968 20.75058112 33.27291711 21.9140625 36.3046875 C22.96223219 39.03140326 24.03786624 41.74343335 25.1484375 44.4453125 C25.61507812 45.59773438 26.08171875 46.75015625 26.5625 47.9375 C26.975 48.93523437 27.3875 49.93296875 27.8125 50.9609375 C28.5625 53.5625 28.5625 53.5625 27.5625 57.5625 C23.9325 57.5625 20.3025 57.5625 16.5625 57.5625 C14.92596798 53.61588679 13.29026378 49.66893175 11.65527344 45.72167969 C11.10080454 44.38337295 10.54612292 43.04515433 9.99121094 41.70703125 C6.80001089 34.01128529 3.62832921 26.30931584 0.5625 18.5625 C0.22476562 19.38234375 -0.11296875 20.2021875 -0.4609375 21.046875 C-0.90695312 22.12453125 -1.35296875 23.2021875 -1.8125 24.3125 C-2.25335938 25.37984375 -2.69421875 26.4471875 -3.1484375 27.546875 C-4.16361757 29.92178111 -5.28244419 32.25238839 -6.4375 34.5625 C-3.4675 34.5625 -0.4975 34.5625 2.5625 34.5625 C4.0475 39.5125 4.0475 39.5125 5.5625 44.5625 C2.71635976 47.40864024 -0.24119142 47.01829076 -4.0625 47.1875 C-5.12210937 47.24550781 -5.12210937 47.24550781 -6.203125 47.3046875 C-7.94748524 47.39897724 -9.69245691 47.48182891 -11.4375 47.5625 C-13.4175 52.5125 -13.4175 52.5125 -15.4375 57.5625 C-19.3975 57.5625 -23.3575 57.5625 -27.4375 57.5625 C-26.88285521 52.77444396 -25.90660527 48.62848514 -24.1796875 44.1328125 C-23.72215088 42.93261475 -23.26461426 41.73241699 -22.79321289 40.49584961 C-22.30016296 39.22619728 -21.80658257 37.95675084 -21.3125 36.6875 C-20.81018714 35.38495431 -20.30815407 34.0823007 -19.80639648 32.77954102 C-18.81498902 30.21192025 -17.81777911 27.64667371 -16.81494141 25.08349609 C-15.97212894 22.92911088 -15.13248189 20.77347972 -14.29833984 18.61572266 C-13.37784644 16.23871274 -12.44324895 13.86805414 -11.5 11.5 C-11.2426709 10.83564941 -10.9853418 10.17129883 -10.72021484 9.48681641 C-8.53981541 4.13622158 -6.20940254 -0.01076153 0 0 Z " fill="#FF3030" transform="translate(368.4375,201.4375)"/>
<path d="M0 0 C0.76121658 -0.0033284 1.52243317 -0.0066568 2.30671692 -0.01008606 C3.92330317 -0.01516079 5.53989994 -0.01749422 7.15649414 -0.01733398 C9.61687872 -0.01950683 12.07680505 -0.03761829 14.53710938 -0.05664062 C16.10807139 -0.05957726 17.67903553 -0.06156025 19.25 -0.0625 C19.98147751 -0.06968552 20.71295502 -0.07687103 21.46659851 -0.08427429 C25.84089568 -0.06496695 29.4364781 0.41412115 33.45703125 2.16796875 C38.44372446 7.67957704 38.14346355 14.30435479 37.84375 21.39453125 C37.34791727 26.23265669 36.65742127 28.53509359 33.45703125 32.16796875 C29.64619278 34.11149225 26.52661556 34.40510751 22.28125 34.36328125 C21.12431641 34.35683594 19.96738281 34.35039062 18.77539062 34.34375 C17.57720703 34.32699219 16.37902344 34.31023437 15.14453125 34.29296875 C13.92701172 34.28394531 12.70949219 34.27492187 11.45507812 34.265625 C8.45564478 34.24210003 5.45631281 34.20623031 2.45703125 34.16796875 C2.45703125 41.75796875 2.45703125 49.34796875 2.45703125 57.16796875 C-1.17296875 57.16796875 -4.80296875 57.16796875 -8.54296875 57.16796875 C-8.56762065 52.34416073 -8.58580568 47.52038908 -8.59790039 42.6965332 C-8.60294049 41.05427411 -8.60977253 39.41201952 -8.6184082 37.76977539 C-8.63048801 35.41421396 -8.63620014 33.05871166 -8.640625 30.703125 C-8.64578629 29.96457779 -8.65094757 29.22603058 -8.65626526 28.46510315 C-8.65646125 26.69898787 -8.60491594 24.93299729 -8.54296875 23.16796875 C-6.61987985 21.24487985 -3.0722639 21.91475037 -0.4453125 21.8515625 C0.26354599 21.8307814 0.97240448 21.81000031 1.70274353 21.78858948 C3.9749043 21.72302277 6.24718389 21.66417645 8.51953125 21.60546875 C10.05665308 21.56229026 11.59376275 21.5186762 13.13085938 21.47460938 C16.90612715 21.36733426 20.68151485 21.26608738 24.45703125 21.16796875 C25.25656263 17.88100642 25.55362061 16.45773683 24.45703125 13.16796875 C13.56703125 12.83796875 2.67703125 12.50796875 -8.54296875 12.16796875 C-8.54296875 0.01281935 -8.54296875 0.01281935 0 0 Z " fill="#FFFFFF" transform="translate(88.54296875,201.83203125)"/>
<path d="M0 0 C0.81463715 -0.00095673 1.62927429 -0.00191345 2.46859741 -0.00289917 C4.18837562 -0.00357916 5.90815642 -0.00173748 7.62792969 0.00244141 C10.27024033 0.00780601 12.91238205 0.00248325 15.5546875 -0.00390625 C17.22395871 -0.00324571 18.89322982 -0.00196504 20.5625 0 C21.35725739 -0.00202423 22.15201477 -0.00404846 22.97085571 -0.00613403 C28.53347736 0.01785236 28.53347736 0.01785236 29.6484375 1.1328125 C29.74667687 2.79710301 29.77817381 4.46563181 29.7734375 6.1328125 C29.77730469 7.4940625 29.77730469 7.4940625 29.78125 8.8828125 C29.6484375 11.1328125 29.6484375 11.1328125 28.6484375 12.1328125 C26.42988486 12.22064792 24.20855254 12.23975859 21.98828125 12.23046875 C20.99158165 12.22834633 20.99158165 12.22834633 19.9747467 12.22618103 C17.84509851 12.22056768 15.71555411 12.20801304 13.5859375 12.1953125 C12.14518381 12.19029921 10.70442847 12.18573601 9.26367188 12.18164062 C5.72522648 12.17059395 2.18684211 12.15332042 -1.3515625 12.1328125 C-1.34108887 12.75849121 -1.33061523 13.38416992 -1.31982422 14.02880859 C-1.27833059 16.8551026 -1.25225777 19.68133261 -1.2265625 22.5078125 C-1.20980469 23.49265625 -1.19304687 24.4775 -1.17578125 25.4921875 C-1.16933594 26.43320313 -1.16289062 27.37421875 -1.15625 28.34375 C-1.14577637 29.21306152 -1.13530273 30.08237305 -1.12451172 30.97802734 C-1.3515625 33.1328125 -1.3515625 33.1328125 -3.3515625 35.1328125 C-5.69921875 35.36328125 -5.69921875 35.36328125 -8.4140625 35.3203125 C-9.31253906 35.31386719 -10.21101563 35.30742187 -11.13671875 35.30078125 C-13.3515625 35.1328125 -13.3515625 35.1328125 -14.3515625 34.1328125 C-14.59387688 30.05422085 -14.58009005 25.97215641 -14.59179688 21.88696289 C-14.60147449 19.83893793 -14.63247074 17.79192857 -14.6640625 15.74414062 C-14.66921875 14.45314453 -14.674375 13.16214844 -14.6796875 11.83203125 C-14.6890332 10.64440186 -14.69837891 9.45677246 -14.70800781 8.2331543 C-14.31959534 4.85476389 -13.75140093 3.49926126 -11.3515625 1.1328125 C-7.54388659 -0.1364128 -3.96655506 -0.01015446 0 0 Z " fill="#FFFFFF" transform="translate(275.3515625,223.8671875)"/>
<path d="M0 0 C0.80308594 -0.02578125 1.60617187 -0.0515625 2.43359375 -0.078125 C3.48740234 0.08429688 3.48740234 0.08429688 4.5625 0.25 C6.74188337 3.51907506 6.81147468 4.44182045 6.80541992 8.22460938 C6.80849655 9.23575806 6.81157318 10.24690674 6.81474304 11.28869629 C6.80755753 12.37936401 6.80037201 13.47003174 6.79296875 14.59375 C6.79228142 16.27470764 6.79228142 16.27470764 6.7915802 17.98962402 C6.78855777 20.36011819 6.78067176 22.73061036 6.76831055 25.10107422 C6.75007315 28.73542292 6.74780074 32.3695166 6.74804688 36.00390625 C6.74313093 38.30468971 6.73730227 40.60547144 6.73046875 42.90625 C6.72935593 43.99691772 6.7282431 45.08758545 6.72709656 46.21130371 C6.72071671 47.22245239 6.71433685 48.23360107 6.70776367 49.27539062 C6.70395187 50.1656897 6.70014008 51.05598877 6.69621277 51.9732666 C6.5625 54.25 6.5625 54.25 5.5625 57.25 C1.9325 57.25 -1.6975 57.25 -5.4375 57.25 C-5.46005606 49.96578023 -5.47841801 42.68157941 -5.48931217 35.39733219 C-5.49453975 32.01528187 -5.50163511 28.6332566 -5.51293945 25.2512207 C-5.52584267 21.36670223 -5.53072924 17.48219403 -5.53515625 13.59765625 C-5.54031754 12.37788589 -5.54547882 11.15811554 -5.55079651 9.90138245 C-5.55087204 8.78029587 -5.55094757 7.65920929 -5.55102539 6.50415039 C-5.553246 5.51153702 -5.55546661 4.51892365 -5.55775452 3.49623108 C-5.34568428 -0.46502357 -3.52716729 0.06772161 0 0 Z " fill="#FF2F2F" transform="translate(414.4375,201.75)"/>
<path d="M0 0 C0.88022827 0.00091141 1.76045654 0.00182281 2.6673584 0.00276184 C3.569823 -0.00152328 4.4722876 -0.00580841 5.40209961 -0.01022339 C7.31196248 -0.01597164 9.22184726 -0.01646332 11.13171387 -0.01213074 C14.06194173 -0.0089695 16.99116164 -0.0324279 19.92126465 -0.05778503 C21.77412795 -0.06005776 23.62699398 -0.06076165 25.4798584 -0.05973816 C26.36008667 -0.06894791 27.24031494 -0.07815765 28.1472168 -0.08764648 C30.61462402 -0.06877136 30.61462402 -0.06877136 34.5736084 0.30354309 C37.01937667 3.9721955 36.80968094 5.97554652 36.5736084 10.30354309 C36.2436084 10.96354309 35.9136084 11.62354309 35.5736084 12.30354309 C29.4680613 12.32818822 23.36254289 12.3463768 17.25695801 12.35847473 C15.17817684 12.36351597 13.09939924 12.37034883 11.02062988 12.37898254 C8.03958254 12.39105731 5.05858191 12.39677333 2.07751465 12.40119934 C0.67439781 12.40894127 0.67439781 12.40894127 -0.75706482 12.4168396 C-2.04829002 12.4169529 -2.04829002 12.4169529 -3.36560059 12.41706848 C-4.12727036 12.41928909 -4.88894012 12.4215097 -5.6736908 12.42379761 C-7.4263916 12.30354309 -7.4263916 12.30354309 -8.4263916 11.30354309 C-8.59436035 9.30744934 -8.59436035 9.30744934 -8.6138916 6.86604309 C-8.62807129 6.06295715 -8.64225098 5.25987122 -8.65686035 4.43244934 C-8.10220777 -0.69103641 -4.2335125 0.04955993 0 0 Z " fill="#FFFFFF" transform="translate(269.4263916015625,201.6964569091797)"/>
</svg>
